<svg xmlns="http://www.w3.org/2000/svg" viewBox="0 0 500 500"><g id="freepik--background-complete--inject-6"><polygon points="479.5 110.54 405.86 110.54 405.86 145.53 435.8 145.53 447 156.73 458.2 145.53 479.5 145.53 479.5 110.54" style="fill:#f5f5f5"></polygon><path d="M423.51,126.27a5.23,5.23,0,0,0-10.37-.92,5.29,5.29,0,0,0,.64,3.56h0l0,0c.2.34.45.58.7.94l3,4a1,1,0,0,0,1.51,0l3-3.95a10.7,10.7,0,0,0,.76-1v0h0A5.22,5.22,0,0,0,423.51,126.27Zm-5.22,2.28a2.3,2.3,0,1,1,2.29-2.3A2.3,2.3,0,0,1,418.29,128.55Z" style="fill:#e0e0e0"></path><path d="M472.16,130c0,.14-9.81.26-21.92.26s-21.92-.12-21.92-.26,9.81-.26,21.92-.26S472.16,129.86,472.16,130Z" style="fill:#e0e0e0"></path><path d="M458.2,134.72c0,.14-6.69.26-14.94.26s-14.94-.12-14.94-.26,6.69-.27,14.94-.27S458.2,134.57,458.2,134.72Z" style="fill:#e0e0e0"></path><polygon points="431 119.13 432 121.16 434.24 121.49 432.62 123.07 433 125.3 431 124.24 428.99 125.3 429.38 123.07 427.75 121.49 429.99 121.16 431 119.13" style="fill:#e0e0e0"></polygon><polygon points="440.48 119.13 441.48 121.16 443.72 121.49 442.1 123.07 442.48 125.3 440.48 124.24 438.47 125.3 438.86 123.07 437.24 121.49 439.48 121.16 440.48 119.13" style="fill:#e0e0e0"></polygon><polygon points="449.96 119.13 450.96 121.16 453.2 121.49 451.58 123.07 451.96 125.3 449.96 124.24 447.95 125.3 448.34 123.07 446.72 121.49 448.96 121.16 449.96 119.13" style="fill:#e0e0e0"></polygon><polygon points="459.44 119.13 460.44 121.16 462.68 121.49 461.06 123.07 461.44 125.3 459.44 124.24 457.44 125.3 457.82 123.07 456.2 121.49 458.44 121.16 459.44 119.13" style="fill:#ebebeb"></polygon><polygon points="468.92 119.13 469.92 121.16 472.16 121.49 470.54 123.07 470.92 125.3 468.92 124.24 466.92 125.3 467.3 123.07 465.68 121.49 467.92 121.16 468.92 119.13" style="fill:#ebebeb"></polygon><polygon points="157.82 36.82 43.32 36.82 43.32 91.23 89.87 91.23 107.29 108.64 124.7 91.23 157.82 91.23 157.82 36.82" style="fill:#f5f5f5"></polygon><path d="M70.76,61.29a8.12,8.12,0,1,0-15.12,4.1h0l0,0c.31.53.7.9,1.1,1.45l4.71,6.25a1.46,1.46,0,0,0,2.34,0L68.45,67a19.41,19.41,0,0,0,1.18-1.57v0h0A8,8,0,0,0,70.76,61.29Zm-8.12,3.53a3.57,3.57,0,1,1,3.57-3.57A3.57,3.57,0,0,1,62.64,64.82Z" style="fill:#e0e0e0"></path><path d="M146.41,67.09c0,.14-15.26.26-34.08.26s-34.09-.12-34.09-.26,15.26-.26,34.09-.26S146.41,67,146.41,67.09Z" style="fill:#e0e0e0"></path><path d="M124.71,74.41c0,.15-10.4.26-23.23.26s-23.24-.11-23.24-.26,10.4-.26,23.24-.26S124.71,74.27,124.71,74.41Z" style="fill:#e0e0e0"></path><polygon points="82.41 50.18 83.96 53.34 87.44 53.84 84.92 56.3 85.52 59.77 82.41 58.13 79.29 59.77 79.89 56.3 77.37 53.84 80.85 53.34 82.41 50.18" style="fill:#e0e0e0"></polygon><polygon points="97.15 50.18 98.7 53.34 102.19 53.84 99.67 56.3 100.26 59.77 97.15 58.13 94.03 59.77 94.63 56.3 92.11 53.84 95.59 53.34 97.15 50.18" style="fill:#e0e0e0"></polygon><polygon points="111.89 50.18 113.45 53.34 116.93 53.84 114.41 56.3 115 59.77 111.89 58.13 108.78 59.77 109.37 56.3 106.85 53.84 110.33 53.34 111.89 50.18" style="fill:#e0e0e0"></polygon><polygon points="126.63 50.18 128.19 53.34 131.67 53.84 129.15 56.3 129.75 59.77 126.63 58.13 123.52 59.77 124.11 56.3 121.59 53.84 125.08 53.34 126.63 50.18" style="fill:#ebebeb"></polygon><polygon points="141.38 50.18 142.93 53.34 146.41 53.84 143.9 56.3 144.49 59.77 141.38 58.13 138.26 59.77 138.86 56.3 136.34 53.84 139.82 53.34 141.38 50.18" style="fill:#ebebeb"></polygon><path d="M421.6,169.93c.6-4.38-5.57-8-10.2-8.35-2.21-.17-4.51.16-6.61-.57-4.53-1.58-6.35-7.44-10.78-9.31-3.31-1.4-7.12-.15-10.33,1.46s-6.38,3.65-10,3.88c-3.12.2-6.5-1-9.23.57-2,1.13-3.1,3.48-5,4.86s-4.22,1.64-6.5,1.76-4.63.15-6.7,1.1-3.79,3.14-3.36,5.37Z" style="fill:#f5f5f5"></path><path d="M107.44,213.19c.61-4.37-5.56-8-10.2-8.34-2.21-.18-4.51.16-6.6-.57-4.54-1.58-6.36-7.45-10.78-9.31-3.32-1.4-7.13-.16-10.34,1.46s-6.38,3.65-10,3.88c-3.11.2-6.5-1-9.23.56-2,1.14-3.1,3.48-5,4.86s-4.23,1.64-6.51,1.77-4.63.14-6.7,1.09-3.78,3.14-3.35,5.38Z" style="fill:#f5f5f5"></path><path d="M75.79,167.12c.44-3.21-4.1-5.86-7.5-6.13-1.63-.13-3.32.12-4.86-.42-3.33-1.16-4.66-5.47-7.92-6.85-2.43-1-5.23-.11-7.59,1.08s-4.69,2.68-7.33,2.85c-2.29.15-4.78-.7-6.79.42-1.49.83-2.27,2.55-3.65,3.57a8.76,8.76,0,0,1-4.78,1.29,13.35,13.35,0,0,0-4.92.81c-1.53.7-2.79,2.31-2.47,3.95Z" style="fill:#ebebeb"></path><path d="M449.39,50.29c.45-3.21-4.09-5.86-7.5-6.13-1.62-.13-3.31.12-4.85-.42-3.33-1.16-4.67-5.47-7.92-6.85-2.44-1-5.24-.11-7.6,1.08s-4.69,2.68-7.32,2.85c-2.29.15-4.78-.7-6.79.42-1.49.83-2.28,2.55-3.65,3.57A8.76,8.76,0,0,1,399,46.1a13.44,13.44,0,0,0-4.93.81c-1.52.7-2.78,2.31-2.46,4Z" style="fill:#ebebeb"></path><rect x="358.06" y="208.32" width="83.22" height="263.75" style="fill:#f5f5f5"></rect><rect x="399.68" y="208.32" width="41.61" height="263.03" style="fill:#ebebeb"></rect><rect x="367.57" y="182.43" width="29.39" height="25.89" style="fill:#f5f5f5"></rect><rect x="389.95" y="182.43" width="7" height="25.89" style="fill:#ebebeb"></rect><polyline points="351.13 208.32 351.13 206.81 443.72 206.81 443.72 208.32" style="fill:#e0e0e0"></polyline><rect x="374.49" y="219.61" width="7.04" height="14.85" style="fill:#fafafa"></rect><path d="M399.68,240.3c0,.15-9.32.28-20.81.28s-20.81-.13-20.81-.28,9.32-.29,20.81-.29S399.68,240.14,399.68,240.3Z" style="fill:#e0e0e0"></path><rect x="416.46" y="219.61" width="7.04" height="14.85" style="fill:#e0e0e0"></rect><path d="M441.65,240.3c0,.15-9.32.28-20.81.28s-20.8-.13-20.8-.28,9.31-.29,20.8-.29S441.65,240.14,441.65,240.3Z" style="fill:#e0e0e0"></path><rect x="416.46" y="249.1" width="7.04" height="14.85" style="fill:#e0e0e0"></rect><path d="M441.65,269.79c0,.15-9.32.28-20.81.28s-20.8-.13-20.8-.28,9.31-.29,20.8-.29S441.65,269.63,441.65,269.79Z" style="fill:#e0e0e0"></path><rect x="416.46" y="279.48" width="7.04" height="14.85" style="fill:#e0e0e0"></rect><path d="M441.65,300.17c0,.15-9.32.28-20.81.28s-20.8-.13-20.8-.28,9.31-.29,20.8-.29S441.65,300,441.65,300.17Z" style="fill:#e0e0e0"></path><rect x="416.46" y="309.87" width="7.04" height="14.85" style="fill:#e0e0e0"></rect><path d="M441.65,330.55c0,.16-9.32.28-20.81.28s-20.8-.12-20.8-.28,9.31-.28,20.8-.28S441.65,330.39,441.65,330.55Z" style="fill:#e0e0e0"></path><rect x="416.46" y="339.38" width="7.04" height="14.85" style="fill:#e0e0e0"></rect><path d="M441.65,360.06c0,.16-9.32.28-20.81.28s-20.8-.12-20.8-.28,9.31-.28,20.8-.28S441.65,359.9,441.65,360.06Z" style="fill:#e0e0e0"></path><rect x="416.46" y="369.01" width="7.04" height="14.85" style="fill:#e0e0e0"></rect><rect x="416.46" y="399.03" width="7.04" height="14.85" style="fill:#e0e0e0"></rect><path d="M441.65,389.69c0,.16-9.32.29-20.81.29s-20.8-.13-20.8-.29,9.31-.28,20.8-.28S441.65,389.53,441.65,389.69Z" style="fill:#e0e0e0"></path><rect x="374.49" y="249.55" width="7.04" height="14.85" style="fill:#fafafa"></rect><path d="M399.68,270.24c0,.15-9.32.28-20.81.28s-20.81-.13-20.81-.28,9.32-.29,20.81-.29S399.68,270.08,399.68,270.24Z" style="fill:#e0e0e0"></path><rect x="374.49" y="279.49" width="7.04" height="14.85" style="fill:#fafafa"></rect><path d="M399.68,300.18c0,.16-9.32.28-20.81.28s-20.81-.12-20.81-.28,9.32-.29,20.81-.29S399.68,300,399.68,300.18Z" style="fill:#e0e0e0"></path><rect x="374.49" y="309.44" width="7.04" height="14.85" style="fill:#fafafa"></rect><path d="M399.68,330.12c0,.16-9.32.28-20.81.28s-20.81-.12-20.81-.28,9.32-.28,20.81-.28S399.68,330,399.68,330.12Z" style="fill:#e0e0e0"></path><rect x="374.49" y="339.38" width="7.04" height="14.85" style="fill:#fafafa"></rect><path d="M399.68,360.06c0,.16-9.32.28-20.81.28s-20.81-.12-20.81-.28,9.32-.28,20.81-.28S399.68,359.9,399.68,360.06Z" style="fill:#e0e0e0"></path><rect x="374.49" y="369.32" width="7.04" height="14.85" style="fill:#fafafa"></rect><path d="M399.68,390c0,.16-9.32.29-20.81.29s-20.81-.13-20.81-.29,9.32-.28,20.81-.28S399.68,389.84,399.68,390Z" style="fill:#e0e0e0"></path><rect x="374.49" y="399.26" width="7.04" height="14.85" style="fill:#fafafa"></rect><polygon points="181.31 472.29 58.85 472.29 58.31 278.75 180.78 278.75 181.31 472.29" style="fill:#ebebeb"></polygon><rect x="119.55" y="278.74" width="61.23" height="193.55" style="fill:#e0e0e0"></rect><rect x="72.3" y="240.64" width="43.25" height="38.1" style="fill:#ebebeb"></rect><rect x="105.24" y="240.64" width="10.31" height="38.1" style="fill:#e0e0e0"></rect><rect x="48.11" y="276.52" width="136.25" height="2.22" style="fill:#e0e0e0"></rect><rect x="82.49" y="295.36" width="10.37" height="21.86" style="fill:#fff"></rect><path d="M119.55,325.8c0,.23-13.71.42-30.62.42s-30.61-.19-30.61-.42,13.7-.42,30.61-.42S119.55,325.57,119.55,325.8Z" style="fill:#e0e0e0"></path><rect x="144.25" y="295.36" width="10.37" height="21.86" style="fill:#f5f5f5"></rect><path d="M181.31,325.8c0,.23-13.71.42-30.61.42s-30.62-.19-30.62-.42,13.71-.42,30.62-.42S181.31,325.57,181.31,325.8Z" style="fill:#ebebeb"></path><rect x="144.25" y="338.76" width="10.37" height="21.86" style="fill:#f5f5f5"></rect><path d="M181.31,369.2c0,.23-13.71.41-30.61.41s-30.62-.18-30.62-.41,13.71-.42,30.62-.42S181.31,369,181.31,369.2Z" style="fill:#ebebeb"></path><rect x="144.25" y="383.47" width="10.37" height="21.86" style="fill:#f5f5f5"></rect><path d="M181.31,413.9c0,.23-13.71.42-30.61.42s-30.62-.19-30.62-.42,13.71-.42,30.62-.42S181.31,413.67,181.31,413.9Z" style="fill:#ebebeb"></path><rect x="144.25" y="428.17" width="10.37" height="21.86" style="fill:#f5f5f5"></rect><path d="M181.31,458.61c0,.23-13.71.41-30.61.41s-30.62-.18-30.62-.41,13.71-.42,30.62-.42S181.31,458.38,181.31,458.61Z" style="fill:#ebebeb"></path><rect x="82.49" y="339.42" width="10.37" height="21.86" style="fill:#fff"></rect><path d="M119.55,369.86c0,.23-13.71.42-30.62.42s-30.61-.19-30.61-.42,13.7-.42,30.61-.42S119.55,369.63,119.55,369.86Z" style="fill:#e0e0e0"></path><rect x="82.49" y="383.48" width="10.37" height="21.86" style="fill:#fff"></rect><path d="M119.55,413.92c0,.23-13.71.41-30.62.41s-30.61-.18-30.61-.41,13.7-.42,30.61-.42S119.55,413.69,119.55,413.92Z" style="fill:#e0e0e0"></path><rect x="82.49" y="427.54" width="10.37" height="21.86" style="fill:#fff"></rect><path d="M119.55,458c0,.23-13.71.41-30.62.41s-30.61-.18-30.61-.41,13.7-.42,30.61-.42S119.55,457.75,119.55,458Z" style="fill:#e0e0e0"></path></g><g id="freepik--Plant--inject-6"><path d="M411.31,451.58c.76-3-1.17-5.93-3.35-8.07s-4.77-4.07-5.9-6.9c-1.83-4.6.63-10.55-2.49-14.38-1.84-2.26-5.14-3-6.77-5.42a12.53,12.53,0,0,1-1.47-4.3,43.68,43.68,0,0,0-10.87-20.36,38,38,0,0,0,4.26,19.62c1.27,2.41,2.82,4.76,3.24,7.45.68,4.37-1.75,8.86-.68,13.15,1.23,4.91,6.74,8.19,7,13.24.22,4.27-3.5,8-3.23,12.28A11.62,11.62,0,0,0,393,463c3.3,5.49,8.15,9.27,15.5,9.14l9,.32Z" style="fill:#E23744"></path><g style="opacity:0.30000000000000004"><path d="M411.31,451.58c.76-3-1.17-5.93-3.35-8.07s-4.77-4.07-5.9-6.9c-1.83-4.6.63-10.55-2.49-14.38-1.84-2.26-5.14-3-6.77-5.42a12.53,12.53,0,0,1-1.47-4.3,43.68,43.68,0,0,0-10.87-20.36,38,38,0,0,0,4.26,19.62c1.27,2.41,2.82,4.76,3.24,7.45.68,4.37-1.75,8.86-.68,13.15,1.23,4.91,6.74,8.19,7,13.24.22,4.27-3.5,8-3.23,12.28A11.62,11.62,0,0,0,393,463c3.3,5.49,8.15,9.27,15.5,9.14l9,.32Z"></path></g><path d="M419.1,472.46a7.12,7.12,0,0,0,2.48-.06,15.46,15.46,0,0,0,2.92-.73,12.54,12.54,0,0,0,3.61-2,5.09,5.09,0,0,0,1.49-2A9.12,9.12,0,0,0,430,465a26.75,26.75,0,0,1,.21-2.91,8.18,8.18,0,0,1,1.1-2.9c1.06-1.86,2.83-3.63,3.4-6.16s.17-5.18-.25-7.89-.82-5.64.21-8.45,2.94-5.36,3.93-8.53.52-6.66.73-10.06a13.15,13.15,0,0,1,1.17-5c.73-1.6,1.74-3.1,2.53-4.78,1.6-3.39,1.88-7.23,2.32-11,.21-1.9.42-3.81.64-5.75a28.83,28.83,0,0,1,1-5.76,51.54,51.54,0,0,1,2.16-5.57,18.88,18.88,0,0,0,1-2.91,27.32,27.32,0,0,0,.29-3.09,36.09,36.09,0,0,0-.24-6.23c-.24-2.08-.62-4.14-.84-6.22,0-.12,0-.25,0-.36l-.05-.41-.37.18a14,14,0,0,0-4.84,4.09,21.84,21.84,0,0,0-3,5.49c-1.5,3.86-2,7.92-2.8,11.78a32.13,32.13,0,0,1-3.7,10.89c-1,1.6-2.18,3.07-3.23,4.63a12.8,12.8,0,0,0-2.23,5.13c-.53,3.81,1.57,7.15,1.13,10.52a11.71,11.71,0,0,1-1.64,4.67c-.82,1.44-1.78,2.78-2.69,4.12a26.7,26.7,0,0,0-2.42,4.15,13,13,0,0,0-1.1,4.51c-.22,3,.21,5.92,0,8.63a19.8,19.8,0,0,1-2.23,7.4c-1.08,2.22-2.3,4.22-3.31,6.16a30.88,30.88,0,0,0-1.36,2.87,13.51,13.51,0,0,0-.79,2.85,17.76,17.76,0,0,0-.07,5.13,12.9,12.9,0,0,0,2.57,6.55,6.47,6.47,0,0,0,.73.79,4.07,4.07,0,0,0,.59.51l.52.36a11.91,11.91,0,0,1-1.75-1.73,13,13,0,0,1-2.44-6.51,17.75,17.75,0,0,1,.12-5.06,14.2,14.2,0,0,1,.79-2.78c.39-.93.86-1.87,1.38-2.83,1-1.92,2.24-3.92,3.35-6.15a20,20,0,0,0,2.3-7.52c.24-2.78-.18-5.67,0-8.63a12.44,12.44,0,0,1,1.09-4.36,25.54,25.54,0,0,1,2.38-4.07c.91-1.34,1.89-2.67,2.73-4.14a12.18,12.18,0,0,0,1.71-4.86c.44-3.6-1.64-7-1.1-10.5a12.23,12.23,0,0,1,2.16-4.91c1-1.53,2.22-3,3.24-4.64a32.51,32.51,0,0,0,3.78-11.07c.77-3.89,1.31-7.9,2.79-11.69a21.29,21.29,0,0,1,2.9-5.34,13.23,13.23,0,0,1,4.64-3.92l-.42-.23c0,.11,0,.24,0,.36.23,2.11.61,4.17.85,6.23a37.07,37.07,0,0,1,.24,6.13,28.8,28.8,0,0,1-.28,3,17.85,17.85,0,0,1-1,2.81,49.91,49.91,0,0,0-2.17,5.63,27.8,27.8,0,0,0-1,5.85q-.33,2.91-.64,5.76c-.43,3.78-.71,7.56-2.25,10.84-.76,1.63-1.77,3.13-2.52,4.78a13.9,13.9,0,0,0-1.21,5.18c-.19,3.47.26,6.87-.68,10s-2.9,5.61-3.89,8.52-.62,6-.19,8.66.87,5.35.29,7.75-2.23,4.16-3.32,6.08a8.4,8.4,0,0,0-1.11,3,25.42,25.42,0,0,0-.19,2.95,9,9,0,0,1-.39,2.61,4.86,4.86,0,0,1-1.39,1.9,12.43,12.43,0,0,1-3.53,2,15.92,15.92,0,0,1-2.88.79,11.76,11.76,0,0,1-1.83.17Z" style="fill:#263238"></path><path d="M447.54,366.42s0,.09-.09.27l-.2.81c-.17.71-.39,1.78-.73,3.12s-1.17,2.84-1.86,4.7a64.08,64.08,0,0,0-2.14,6.38c-.69,2.4-1.3,5.07-1.93,7.92a33.15,33.15,0,0,1-2.89,8.79c-.73,1.47-1.56,2.95-2.22,4.56a21.31,21.31,0,0,0-1.3,5.17A104.91,104.91,0,0,1,432.24,419c-1.8,7.38-3.52,14.4-5.09,20.8s-3,12.12-4.26,17-2.15,8.7-2.83,11.45c-.32,1.32-.56,2.36-.74,3.12q-.1.5-.18.81a.9.9,0,0,0,0,.29,1.36,1.36,0,0,0,.1-.27c.06-.22.14-.48.23-.8.21-.75.49-1.79.85-3.1l3-11.4L427.67,440l5.13-20.8a101.14,101.14,0,0,0,1.94-10.94,20.79,20.79,0,0,1,1.25-5c.63-1.58,1.45-3.05,2.19-4.53a33.52,33.52,0,0,0,2.87-8.92c.62-2.87,1.2-5.52,1.86-7.92s1.35-4.53,2-6.38,1.45-3.38,1.78-4.76.49-2.42.63-3.15c.05-.33.1-.6.14-.82A1,1,0,0,0,447.54,366.42Z" style="fill:#263238"></path><path d="M415.87,471.88c6.33-2.6,9.5-12.59,8-19.26s-4.9-13.07-4.57-19.9c.26-5.25,2.74-10.32,2.27-15.56-.62-7.06-6.51-13.33-5.4-20.34.62-3.93,3.4-7.31,3.8-11.27.49-4.86-2.65-9.23-4.32-13.82-2.56-7-1.66-14.75-1.79-22.23s-1.76-15.69-7.7-20.23c-1.87,6.06-4.12,10.06-4.84,18.53-.26,3,2.39,9.32,1.9,16-.29,4-.68,8-1,12s-.65,7.83.2,11.63c.65,2.91,2,5.66,2.35,8.62.69,5.57-2.1,11.09-1.71,16.69.34,4.74,2.94,9.16,2.9,13.92-.05,6.68-5.28,12.86-4,19.43.62,3.25,2.8,6.12,3.06,9.42.19,2.57-.8,5.11-.66,7.68.23,4.13,7.43,8.38,11.56,8.73" style="fill:#E23744"></path><path d="M406.86,335.66a1.6,1.6,0,0,0,0,.35c0,.26,0,.61,0,1,0,.91,0,2.25,0,4s.68,3.81,1,6.23.75,5.2,1,8.28.3,6.47.36,10.11.13,7.6,1.35,11.56c.54,2,1.18,4,1.58,6.06a25.71,25.71,0,0,1,.3,6.47,128.16,128.16,0,0,0-.28,13.8c.43,9.44.85,18.43,1.22,26.62s.89,15.52,1.24,21.71l.88,14.64c.12,1.7.21,3,.27,4,0,.43.06.77.09,1a2,2,0,0,0,0,.35,1.35,1.35,0,0,0,0-.35c0-.27,0-.61,0-1,0-.95-.09-2.28-.16-4-.17-3.5-.41-8.49-.7-14.65s-.7-13.55-1.11-21.72-.76-17.17-1.18-26.61a127.38,127.38,0,0,1,.27-13.75,26.36,26.36,0,0,0-.33-6.6c-.41-2.13-1.06-4.13-1.61-6.1-1.22-3.9-1.27-7.8-1.38-11.43s-.18-7-.43-10.13-.62-5.88-1.05-8.3-1-4.48-1.13-6.2-.08-3.07-.12-4c0-.43,0-.78,0-1A1.6,1.6,0,0,0,406.86,335.66Z" style="fill:#263238"></path></g><g id="freepik--Device--inject-6"><path d="M353.11,471.88,207.9,471.8a31.63,31.63,0,0,1-31.61-31.64l.07-364A31.62,31.62,0,0,1,208,44.51l145.21.08a31.63,31.63,0,0,1,31.61,31.64l-.07,364A31.64,31.64,0,0,1,353.11,471.88Z" style="fill:#455a64"></path><path d="M354.12,55.41l-28.25-.13A7,7,0,0,0,319,62.42l0,5.13a7,7,0,0,1-6.89,7.14L257,74.43a7,7,0,0,1-6.83-7.2l0-5.13a7,7,0,0,0-6.83-7.2l-9.93,0-24.73-.11a22.23,22.23,0,0,0-22.33,22.14l-1.51,356.56A22.23,22.23,0,0,0,207,455.76l145.42.67a22.22,22.22,0,0,0,22.33-22.13l1.51-356.57A22.23,22.23,0,0,0,354.12,55.41Z" style="fill:#f5f5f5"></path><path d="M292.41,389.05c-.17,4.31-.33,8.35-.46,11.7h20.89l-2.56-12.83Z" style="fill:#f5f5f5"></path><path d="M207.51,394.42l.18,6.33h82.17c.14-3.55.3-7.5.45-11.56Z" style="fill:#f5f5f5"></path><polygon points="311.33 387.86 313.9 400.75 352.41 400.75 351.95 385.29 311.33 387.86" style="fill:#f5f5f5"></polygon><polygon points="294.49 207.56 301.77 165.34 282.7 163.93 282.7 207.56 294.49 207.56" style="fill:#ebebeb"></polygon><polygon points="205.79 370.99 185.09 379.1 185.03 393.76 206.41 392.4 205.79 370.99" style="fill:#f5f5f5"></polygon><polygon points="205.7 367.69 204.57 328.37 204.55 328.37 204.55 314.5 185.36 316.53 185.11 375.73 205.69 367.67 205.7 367.69" style="fill:#ebebeb"></polygon><polygon points="204.55 283.54 185.51 281.03 185.37 313.39 204.55 311.36 204.55 283.54" style="fill:#f5f5f5"></polygon><polygon points="346.48 315.08 345.68 326.35 323.19 328.78 324.93 337.69 350.46 335.77 350.08 322.98 352.12 314.51 346.48 315.08" style="fill:#f5f5f5"></polygon><polygon points="305.95 339.13 323.88 337.77 319.98 317.76 304.32 319.34 305.95 339.13" style="fill:#f5f5f5"></polygon><polygon points="306.12 341.2 307.49 357.89 309.92 380.78 310.92 385.79 351.89 383.2 350.52 337.86 306.12 341.2" style="fill:#ebebeb"></polygon><path d="M235.61,262.41l1.58,2.7-31.6,18.43v43.71l33.35-2.36,64.26-6.49-2.35-28.65-61.4-8,.41-3.1,60.73,7.93-4-48.49-60.1,5.78-.2-2.07L296.43,236l-2.07-25.3H236.54l-50.77,9.24-.25,57.94,19.23,2.54Zm-26.78,60.67s.24-36.05,0-37.39L234.61,272,238,321.24Z" style="fill:#f5f5f5"></path><polygon points="344.38 315.3 321.02 317.65 322.79 326.73 343.73 324.47 344.38 315.3" style="fill:#f5f5f5"></polygon><path d="M292.7,381.33c-.07,1.89-.14,3.78-.21,5.63l17.38-1.1-.89-4.48Z" style="fill:#f5f5f5"></path><polygon points="255.26 207.56 258.32 193.68 281.66 193.68 281.66 163.85 208.68 158.45 208.68 186.45 185.88 191.61 185.78 216.75 236.26 207.56 255.26 207.56" style="fill:#ebebeb"></polygon><path d="M304,124.58l-.62-2.56,27.87-11L313.07,74.61a8.26,8.26,0,0,1-1,.08l-30.8-.15.84,50.93Z" style="fill:#f5f5f5"></path><path d="M346.19,105.06l0-49.69-20.28-.09A7,7,0,0,0,319,62.42l0,5.13a7.26,7.26,0,0,1-3,5.88l18.14,36.41Z" style="fill:#ebebeb"></path><path d="M241.42,107.19l-2.35-52.31-5.64,0-22-.1L202,101.53Zm-5-47,.75,42.6-29.3-4.28,6.42-38.32Z" style="fill:#f5f5f5"></path><path d="M242.49,107.35v.44c0,4.08.14,11.43.2,19.29l38.38-1.57-.84-51L257,74.43a7,7,0,0,1-6.83-7.2l0-5.13a7,7,0,0,0-6.83-7.2l-3.24,0,2.35,52.46Z" style="fill:#f5f5f5"></path><path d="M198.9,101.09l9.3-46.33a22.23,22.23,0,0,0-21.83,22.12l-.1,23.09.1-.68Z" style="fill:#f5f5f5"></path><polygon points="205.55 158.22 186.03 156.77 185.9 188.4 205.55 183.96 205.55 158.22" style="fill:#f5f5f5"></polygon><polygon points="198.69 102.11 186.27 100.33 186.06 151.55 188.73 151.75 198.69 102.11" style="fill:#f5f5f5"></polygon><polygon points="238.12 367.09 238.45 325.97 205.61 328.29 206.77 368.58 238.12 367.09" style="fill:#f5f5f5"></polygon><path d="M244.16,357.6l46.51,22.28c.56-14.56,1.05-28.17,1-29l1-.06.49-1c.67.33.67.33.32,10.26-.19,5.54-.47,12.91-.75,20.28h16.09L306.45,358l-3.16-38.55-60.77,6.14Z" style="fill:#f5f5f5"></path><polygon points="358.17 289.35 357.64 283.93 301.89 289.73 304.24 318.3 352.37 313.44 358.17 289.35" style="fill:#f5f5f5"></polygon><polygon points="281.66 196.81 260.83 196.81 258.46 207.56 281.66 207.56 281.66 196.81" style="fill:#f5f5f5"></polygon><path d="M349.56,200.44l-52.16-3.61-2.12,12.32,2.19,26.74,55-5.29Zm-50.24,8.69,2.8-7.78,45.3,2.87L350,226.46l-49.19,5.84Z" style="fill:#f5f5f5"></path><polygon points="354.97 256.33 352.68 232.68 297.64 237.97 299.71 263.14 354.97 256.33" style="fill:#f5f5f5"></polygon><polygon points="206.47 394.49 185.12 395.84 185.03 394.45 185 400.75 206.65 400.75 206.47 394.49" style="fill:#f5f5f5"></polygon><path d="M375.87,93.32l.31.79.07-16.38a22.23,22.23,0,0,0-22.13-22.32l-6.92,0,0,49.27Z" style="fill:#ebebeb"></path><path d="M290.63,381l-47.48-22.75-1.67-32.59-2,.2-.34,42.2-32.35,1.54,0,.94v0h0l.63,21.76,82.95-5.25C290.47,385.08,290.55,383,290.63,381Zm-81.8-8.72,45.29-3.18,29.47,13.67-74.76,4Z" style="fill:#f5f5f5"></path><path d="M362.37,148l1.94-11.52c-17-6.08-18.2-23.83-18.15-29.21l-11.11,4.4,16.73,33.59Z" style="fill:#f5f5f5"></path><polygon points="301.64 286.62 324.78 284.21 320.22 263.76 299.96 266.26 301.64 286.62" style="fill:#f5f5f5"></polygon><polygon points="351.57 168.08 308.34 168.07 304.75 167.81 299.87 196.12 351.18 199.67 349.99 187.36 355.04 169.18 351.57 168.08" style="fill:#f5f5f5"></polygon><path d="M348.58,160.48l.54-13.51-17-34.11-26.34,10.43,9,37.19ZM331.11,117l15.56,29.62-2.24,9.23-26.65-1-6.66-28Z" style="fill:#f5f5f5"></path><polygon points="355.31 323.52 356.1 350.07 374.83 349.01 374.89 350.05 356.14 351.11 357.09 382.87 374.8 381.75 374.93 383.83 357.15 384.96 357.63 400.75 374.88 400.75 375.26 312.18 357.61 313.96 355.31 323.52" style="fill:#f5f5f5"></polygon><path d="M241.46,108.25l-39.67-5.69L191.87,152l49.76,3.69C241.83,148.06,241.66,124.72,241.46,108.25Z" style="fill:#ebebeb"></path><polygon points="306.69 160.49 312.7 160.49 304.2 125.61 282.13 126.51 282.66 158.7 306.69 160.49" style="fill:#f5f5f5"></polygon><path d="M184.89,426.13l0,7.31c0,.22,0,.44,0,.67Z" style="fill:#f5f5f5"></path><path d="M242.65,155.74l39,2.89-.52-32.08-38.39,1.57C242.78,139,242.81,150.54,242.65,155.74Z" style="fill:#f5f5f5"></path><polygon points="355.27 259.44 321.26 263.64 325.83 284.1 357.34 280.82 355.27 259.44" style="fill:#f5f5f5"></polygon><path d="M364.49,135.47l2.18-12.93,9.39.73.12-27.84-29,11.47C346.63,126.48,358.93,133.37,364.49,135.47Z" style="fill:#ebebeb"></path><polygon points="353.34 185.44 354.52 197.65 375.74 199.12 375.84 173.97 358.08 168.36 353.34 185.44" style="fill:#f5f5f5"></polygon><path d="M363.44,289.72l-5.57,23.17,17.39-1.76.11-24.29c-5.34-1.41-10-2.55-12.51-3Z" style="fill:#f5f5f5"></path><polygon points="351.69 160.88 375.87 168.51 375.93 154.77 352.19 148.63 351.69 160.88" style="fill:#f5f5f5"></polygon><path d="M362.56,280.62c1.95.3,5.64,1.08,12.82,3l.22-53.11-17.73,1.7Z" style="fill:#f5f5f5"></path><polygon points="357.67 230.11 375.61 228.38 375.72 202.25 354.83 200.8 357.67 230.11" style="fill:#f5f5f5"></polygon><path d="M366.49,136.13c3.41,1,6.57,1.83,9.5,2.42l.06-13.19-7.64-.59Z" style="fill:#f5f5f5"></path><path d="M364.4,148.56l11.54,3,.05-11.92q-4.49-.88-9.67-2.46Z" style="fill:#f5f5f5"></path><path d="M374.93,383.83l-.13-2.08-17.71,1.12-.95-31.76,18.75-1.06-.05-1-18.74,1.06-.79-26.54,2.3-9.57,17.65-1.78v-1.05l-17.39,1.76,5.57-23.17-.58-5.91c2.51.48,7.17,1.62,12.51,3v-3.25c-7.18-1.89-10.87-2.67-12.82-3l-4.69-48.44,17.73-1.7v-2.1l-17.94,1.73-2.84-29.31,20.89,1.45,0-3.14-21.22-1.46-1.18-12.21,4.74-17.08L375.84,174l0-5.46-24.18-7.63.49-12.25,23.74,6.14,0-3.23-11.54-3,1.92-11.4q5.19,1.58,9.67,2.46v-1.07c-2.93-.59-6.09-1.39-9.5-2.42l1.92-11.36,7.64.59v-2.09l-9.39-.73-2.18,12.93c-5.56-2.1-17.86-9-17.27-28.57l29-11.47V94.11l-.31-.79-28.64,11.33,0-49.27h-1.05l0,49.69-12.07,4.78L316,73.43a6.67,6.67,0,0,1-2.91,1.18L331.2,111l-27.87,11,.62,2.56-21.84.89-.84-50.93h-1l.84,51-38.38,1.57c-.06-7.86-.15-15.21-.2-19.29v-.44h0l-2.35-52.46h-1.05l2.35,52.31L202,101.53l9.39-46.78H208.7l-.5,0-9.3,46.33-12.53-1.8-.1.68v.36l12.42,1.78-10,49.64-2.68-.2,0,5.22,19.52,1.45V184L185.9,188.4v3.21l22.79-5.16v-28l73,5.41v29.82H258.32l-3.06,13.89h-19l-50.48,9.18v3.18l50.77-9.24h57.82l2.07,25.3-60.13,5.79.2,2.07,60.1-5.78,4,48.49-60.73-7.93-.41,3.1,61.4,8,2.35,28.65-64.26,6.49-33.35,2.36V283.54l31.6-18.43-1.58-2.7-30.86,18-19.23-2.54V281l19,2.51v27.82l-19.18,2v3.14l19.19-2v13.87h0l1.13,39.32v0l-20.58,8.06,0,3.36,20.7-8.1.62,21.42L185,393.76v.69l.09,1.39,21.35-1.35.18,6.26h1l-.18-6.33,82.8-5.23c-.15,4.06-.31,8-.45,11.56H292c.13-3.35.29-7.39.46-11.7l17.87-1.13,2.56,12.83h1.06l-2.57-12.89L352,385.29l.46,15.46h5.22M292.49,387c.07-1.85.14-3.74.21-5.63l16.28.05.89,4.48Zm18.43-1.17-1-5-2.43-22.89-1.37-16.69,44.4-3.34,1.37,45.34ZM321,317.65l23.36-2.35-.65,9.17-20.94,2.26Zm-1,.11,3.9,20L306,339.13l-1.63-19.79Zm30.48,18-25.53,1.92-1.74-8.91,22.49-2.43.8-11.27,5.63-.56-2,8.46Zm-30.24-72,4.56,20.45-23.14,2.4L300,266.26Zm5.61,20.34-4.57-20.46,34-4.19,2.07,21.37Zm23.42-86.82-51.31-3.55,4.88-28.31,3.59.27h43.23l3.47,1.09L348.06,185Zm-3.09-90c-.05,5.38,1.13,23.13,18.15,29.21L362.37,148l-10.59-2.74-16.73-33.59Zm-14,5.55,17,34.11-.54,13.51H314.84l-9-37.19ZM304.2,125.61l8.5,34.87h-6l-24-1.78-.53-32.19Zm-23.11.94.52,32.08-39-2.89c.16-5.2.13-16.77,0-27.62Zm-79.3-24,39.67,5.69c.2,16.47.37,39.81.17,47.42L191.87,152Zm100,62.79-7.28,42.22H282.7V163.93Zm-40.94,31.46h20.83v10.76h-23.2Zm34.45,12.34,2.12-12.32,52.16,3.61,2.92,30.16-55,5.29Zm57.4,23.53L355,256.33l-55.26,6.81L297.64,238Zm-50.79,57.05,55.75-5.8.53,5.42-5.8,24.09-48.13,4.86ZM306.45,358l2.38,22.35H292.74c.28-7.37.56-14.74.75-20.28.35-9.93.35-9.93-.32-10.26l-.49,1-1,.06c.05.87-.44,14.48-1,29L244.16,357.6l-1.64-32,60.77-6.14Zm-68-32-.33,41.12-31.35,1.49-1.16-40.29Zm-31.63,44.61h0v0l0-.94,32.35-1.54.34-42.2,2-.2,1.67,32.59L290.63,381c-.08,2-.16,4.06-.23,6.07l-82.95,5.25Z" style="fill:#fff"></path><polygon points="254.12 369.12 208.83 372.3 208.83 386.84 283.58 382.79 254.12 369.12" style="fill:#e0e0e0"></polygon><polygon points="347.42 204.22 302.12 201.35 299.32 209.13 300.85 232.3 350.04 226.46 347.42 204.22" style="fill:#e0e0e0"></polygon><path d="M185,351.53l-.11,74.6v8A22.21,22.21,0,0,0,207,455.76l145.42.67a22.22,22.22,0,0,0,22.33-22.13l.14-82.77Z" style="fill:#fff"></path><polygon points="238.04 105.51 237.29 62.9 215.16 62.9 208.74 101.22 238.04 105.51" style="fill:#e0e0e0"></polygon><polygon points="344.43 155.87 346.68 146.63 331.11 117.01 311.12 126.84 317.79 154.86 344.43 155.87" style="fill:#ebebeb"></polygon><path d="M208.83,285.69c.24,1.34,0,37.39,0,37.39L238,321.24,234.61,272Z" style="fill:#e0e0e0"></path><polygon points="305.95 314.96 304.41 292.62 354.36 286.2 354.36 290.05 348.32 310.59 305.95 314.96" style="fill:#e0e0e0"></polygon><path d="M352.52,371.87l-.63-14.57L308,359.43a6.75,6.75,0,0,1-3.31-.7l-62.28-31.46a4.52,4.52,0,0,1-2.47-3.79l-8.47-164.39a2.69,2.69,0,0,1,.82-2.11,2.78,2.78,0,0,1,2.12-.78l26.69,2V129h3.13v29.59a2.76,2.76,0,0,1-2.95,2.74l-26.67-2,8.45,164a1.4,1.4,0,0,0,.76,1.16l62.28,31.46a3.54,3.54,0,0,0,1.75.37l44.27-2.15a2.77,2.77,0,0,1,2.9,2.64l.64,14.93Z" style="fill:#fff"></path><path d="M348.75,185.37a24,24,0,1,0-44.63,12.11h0l.07.09c.92,1.54,2.07,2.65,3.23,4.28l13.92,18.43a4.32,4.32,0,0,0,6.91,0l13.68-18.13a51.62,51.62,0,0,0,3.48-4.61l.05-.06h0A23.84,23.84,0,0,0,348.75,185.37Zm-24,10.43a10.55,10.55,0,1,1,10.55-10.55A10.54,10.54,0,0,1,324.78,195.8Z" style="fill:#E23744"></path><path d="M219.7,383.18a10.87,10.87,0,1,0-20.25,5.49h0l0,0c.42.71.94,1.21,1.47,2l6.31,8.36a2,2,0,0,0,3.14,0l6.2-8.23a23.24,23.24,0,0,0,1.58-2.09l0,0h0A10.78,10.78,0,0,0,219.7,383.18Zm-10.87,4.73a4.79,4.79,0,1,1,4.78-4.78A4.78,4.78,0,0,1,208.83,387.91Z" style="fill:#E23744"></path><path d="M350.91,391c0,.14-27.13.26-60.59.26s-60.6-.12-60.6-.26,27.13-.26,60.6-.26S350.91,390.8,350.91,391Z" style="fill:#263238"></path><path d="M292,400.75c0,.15-13.93.26-31.11.26s-31.12-.11-31.12-.26,13.93-.26,31.12-.26S292,400.61,292,400.75Z" style="fill:#263238"></path><polygon points="235.3 368.3 237.38 372.53 242.04 373.21 238.67 376.49 239.47 381.14 235.3 378.95 231.13 381.14 231.92 376.49 228.55 373.21 233.21 372.53 235.3 368.3" style="fill:#E23744"></polygon><polygon points="255.04 368.3 257.13 372.53 261.79 373.21 258.41 376.49 259.21 381.14 255.04 378.95 250.87 381.14 251.67 376.49 248.29 373.21 252.96 372.53 255.04 368.3" style="fill:#E23744"></polygon><polygon points="274.78 368.3 276.87 372.53 281.53 373.21 278.16 376.49 278.95 381.14 274.78 378.95 270.61 381.14 271.41 376.49 268.04 373.21 272.7 372.53 274.78 368.3" style="fill:#E23744"></polygon><polygon points="294.53 368.3 296.61 372.53 301.27 373.21 297.9 376.49 298.7 381.14 294.53 378.95 290.36 381.14 291.15 376.49 287.78 373.21 292.44 372.53 294.53 368.3" style="fill:#E23744"></polygon><polygon points="314.27 368.3 316.36 372.53 321.02 373.21 317.65 376.49 318.44 381.14 314.27 378.95 310.1 381.14 310.9 376.49 307.52 373.21 312.19 372.53 314.27 368.3" style="fill:#e0e0e0"></polygon><path d="M269.64,419.69c0,.15-7.58.26-16.93.26s-16.93-.11-16.93-.26,7.58-.26,16.93-.26S269.64,419.55,269.64,419.69Z" style="fill:#e0e0e0"></path><path d="M356.64,428.22c0,.14-27.06.26-60.43.26s-60.43-.12-60.43-.26,27-.27,60.43-.27S356.64,428.07,356.64,428.22Z" style="fill:#e0e0e0"></path><circle cx="213.93" cy="423.79" r="10.32" style="fill:#f5f5f5"></circle><path d="M215.14,423.5a3.23,3.23,0,0,0,2-3,3,3,0,1,0-6.05-.1,3.23,3.23,0,0,0,1.9,3c-4.67.65-4.51,5.71-4.51,5.71l11,.17S219.74,424.25,215.14,423.5Z" style="fill:#e0e0e0"></path><path d="M280.6,445.73h0a.52.52,0,0,1-.36-.16l-5-5.22a.5.5,0,0,1,0-.71.49.49,0,0,1,.7,0l4.65,4.84,4.56-4.75a.51.51,0,0,1,.71,0,.5.5,0,0,1,0,.71L281,445.57A.48.48,0,0,1,280.6,445.73Z" style="fill:#263238"></path></g><g id="freepik--Floor--inject-6"><path d="M450.46,472.43c0,.14-92,.26-205.45.26s-205.47-.12-205.47-.26,92-.27,205.47-.27S450.46,472.28,450.46,472.43Z" style="fill:#263238"></path></g></svg>